<svg width="20" height="20" viewBox="0 0 20 20" fill="none" xmlns="http://www.w3.org/2000/svg">
<path d="M16.97 10.5883C17.1262 10.432 17.214 10.2201 17.214 9.99915C17.214 9.77818 17.1262 9.56625 16.97 9.40998L12.2558 4.69581C12.179 4.61622 12.087 4.55274 11.9853 4.50906C11.8837 4.46539 11.7743 4.4424 11.6637 4.44144C11.553 4.44048 11.4433 4.46156 11.3409 4.50346C11.2385 4.54536 11.1454 4.60724 11.0672 4.68548C10.9889 4.76373 10.9271 4.85677 10.8851 4.95918C10.8432 5.0616 10.8222 5.17133 10.8231 5.28198C10.8241 5.39263 10.8471 5.50198 10.8907 5.60365C10.9344 5.70532 10.9979 5.79727 11.0775 5.87415L14.3692 9.16581L3.33333 9.16581C3.11232 9.16581 2.90036 9.25361 2.74408 9.40989C2.5878 9.56617 2.5 9.77813 2.5 9.99915C2.5 10.2202 2.5878 10.4321 2.74408 10.5884C2.90036 10.7447 3.11232 10.8325 3.33333 10.8325L14.3692 10.8325L11.0775 14.1241C10.9257 14.2813 10.8417 14.4918 10.8436 14.7103C10.8455 14.9288 10.9331 15.1378 11.0877 15.2923C11.2422 15.4468 11.4512 15.5345 11.6697 15.5364C11.8882 15.5383 12.0987 15.4543 12.2558 15.3025L16.97 10.5883Z" fill="#21252D"/>
</svg>
