<svg width="22" height="22" viewBox="0 0 22 22" fill="none" xmlns="http://www.w3.org/2000/svg">
<path d="M16.8438 12.0312C16.8438 12.3032 16.7631 12.569 16.6121 12.7952C16.461 13.0213 16.2462 13.1975 15.995 13.3016C15.7437 13.4057 15.4673 13.4329 15.2005 13.3798C14.9338 13.3268 14.6888 13.1958 14.4965 13.0035C14.3042 12.8112 14.1733 12.5662 14.1202 12.2995C14.0672 12.0328 14.0944 11.7563 14.1985 11.5051C14.3025 11.2538 14.4788 11.0391 14.7049 10.888C14.931 10.7369 15.1968 10.6562 15.4688 10.6562C15.8335 10.6562 16.1832 10.8011 16.4411 11.059C16.6989 11.3168 16.8438 11.6666 16.8438 12.0312ZM20.2813 9.28125V16.1562C20.2813 16.8856 19.9916 17.5851 19.4758 18.1008C18.9601 18.6165 18.2606 18.9062 17.5313 18.9062H5.15629C4.42694 18.9062 3.72747 18.6165 3.21174 18.1008C2.69602 17.5851 2.40629 16.8856 2.40629 16.1562V5.92281C2.39571 5.55508 2.45903 5.18896 2.59248 4.84614C2.72594 4.50331 2.92683 4.19075 3.18325 3.92696C3.43967 3.66316 3.74642 3.4535 4.08532 3.31038C4.42423 3.16726 4.7884 3.0936 5.15629 3.09375H16.5C16.7735 3.09375 17.0358 3.2024 17.2292 3.3958C17.4226 3.58919 17.5313 3.8515 17.5313 4.125C17.5313 4.3985 17.4226 4.66081 17.2292 4.8542C17.0358 5.0476 16.7735 5.15625 16.5 5.15625H5.15629C5.06409 5.1562 4.97283 5.1747 4.88793 5.21064C4.80303 5.24657 4.72622 5.29922 4.66208 5.36545C4.59794 5.43167 4.54777 5.51012 4.51457 5.59613C4.48136 5.68214 4.46579 5.77395 4.46879 5.86609V5.87297C4.48323 6.055 4.56677 6.22461 4.70227 6.34701C4.83778 6.46941 5.01498 6.53533 5.19754 6.53125H17.5313C18.2606 6.53125 18.9601 6.82098 19.4758 7.33671C19.9916 7.85243 20.2813 8.5519 20.2813 9.28125ZM18.2188 9.28125C18.2188 9.09891 18.1464 8.92405 18.0174 8.79511C17.8885 8.66618 17.7136 8.59375 17.5313 8.59375H5.19754C4.95167 8.59385 4.70678 8.56267 4.46879 8.50094V16.1562C4.46879 16.3386 4.54122 16.5135 4.67015 16.6424C4.79908 16.7713 4.97395 16.8438 5.15629 16.8438H17.5313C17.7136 16.8438 17.8885 16.7713 18.0174 16.6424C18.1464 16.5135 18.2188 16.3386 18.2188 16.1562V9.28125Z" fill="#684222"/>
</svg>
